<svg id="Layer_1" data-name="Layer 1" xmlns="http://www.w3.org/2000/svg" viewBox="0 0 30.35 31.64"><path fill="#fff" d="M18.05,3.38C9.94,2.51,5.45,6.76,4,8.53A10.31,10.31,0,0,0,1.6,19c3.91-5.09,10.45-6,12.26-6.21C11.74,13.89,2.4,19.12.31,29c0,.08,0,.16-.07.25s-.1.41-.14.62,0,.24-.06.36-.12.83.27,1l1.34.41s.7.2.69-.59c0-2.64.7-5.6,2.46-7.38a10.43,10.43,0,0,0,3.38,1.84,10.26,10.26,0,0,0,9.13-1.41C26.4,18.43,30.35,0,30.35,0,27,4.46,18.05,3.38,18.05,3.38Zm-3.73,9.41h0Z" transform="translate(0 0)"/></svg>